<svg width="24" height="24" viewBox="0 0 24 24" fill="none" xmlns="http://www.w3.org/2000/svg">
<g clip-path="url(#clip0_520_221)">
<path d="M5.75966 0C5.23466 0 4.79966 0.435 4.79966 0.96V1.92H1.91966C1.36278 1.92 0.959656 2.32312 0.959656 2.88V6.24H23.0397V2.88C23.0397 2.32312 22.6365 1.92 22.0797 1.92H19.1997V0.96C19.1997 0.435 18.7647 0 18.2397 0H17.2797C16.7547 0 16.3197 0.435 16.3197 0.96V1.92H7.67966V0.96C7.67966 0.435 7.24466 0 6.71966 0H5.75966ZM5.75966 0.96H6.71966V3.84H5.75966V0.96ZM17.2797 0.96H18.2397V3.84H17.2797V0.96ZM0.959656 7.2V22.08C0.959656 22.6369 1.36278 23.04 1.91966 23.04H22.0797C22.6365 23.04 23.0397 22.6369 23.0397 22.08V7.2H0.959656ZM5.75966 10.08H8.15966V12.48H5.75966V10.08ZM9.11966 10.08H11.5197V12.48H9.11966V10.08ZM12.4797 10.08H14.8797V12.48H12.4797V10.08ZM15.8397 10.08H18.2397V12.48H15.8397V10.08ZM5.75966 13.44H8.15966V15.84H5.75966V13.44ZM9.11966 13.44H11.5197V15.84H9.11966V13.44ZM12.4797 13.44H14.8797V15.84H12.4797V13.44ZM15.8397 13.44H18.2397V15.84H15.8397V13.44ZM5.75966 16.8H8.15966V19.2H5.75966V16.8ZM9.11966 16.8H11.5197V19.2H9.11966V16.8ZM12.4797 16.8H14.8797V19.2H12.4797V16.8ZM15.8397 16.8H18.2397V19.2H15.8397V16.8Z" fill="#BB2A21"/>
</g>
<defs>
<clipPath id="clip0_520_221">
<rect width="24" height="24" fill="white"/>
</clipPath>
</defs>
</svg>
