<svg width="24" height="24" viewBox="0 0 24 24" fill="none" xmlns="http://www.w3.org/2000/svg">
<path d="M12.0003 0.480469C7.76656 0.480469 4.32031 3.92672 4.32031 8.16047C4.32031 14.9348 11.3422 23.0142 11.6403 23.3555C11.7322 23.4605 11.8616 23.5205 12.0003 23.5205C12.1484 23.5111 12.2684 23.4605 12.3603 23.3555C12.6584 23.0086 19.6803 14.7905 19.6803 8.16047C19.6803 3.92672 16.2341 0.480469 12.0003 0.480469ZM12.0003 5.76047C13.5903 5.76047 14.8803 7.05047 14.8803 8.64047C14.8803 10.2305 13.5903 11.5205 12.0003 11.5205C10.4103 11.5205 9.12031 10.2305 9.12031 8.64047C9.12031 7.05047 10.4103 5.76047 12.0003 5.76047Z" fill="#BB2A21"/>
</svg>
